<mxfile host="app.diagrams.net" modified="2024-02-22T15:09:55.800Z" agent="Mozilla/5.0 (Windows NT 10.0; Win64; x64) AppleWebKit/537.36 (KHTML, like Gecko) Chrome/120.0.0.0 YaBrowser/24.1.0.0 Safari/537.36" etag="6RkVBI9w_inUpnqjLG1d" version="23.1.5" type="github">
  <diagram name="Страница — 1" id="66TOMJSSnxzuz0lcUZof">
    <mxGraphModel dx="1040" dy="583" grid="1" gridSize="10" guides="1" tooltips="1" connect="1" arrows="1" fold="1" page="1" pageScale="1" pageWidth="827" pageHeight="1169" math="0" shadow="0">
      <root>
        <mxCell id="0" />
        <mxCell id="1" parent="0" />
        <mxCell id="9x6tsyBbqe4y4ygr-2_b-15" style="edgeStyle=orthogonalEdgeStyle;rounded=0;orthogonalLoop=1;jettySize=auto;html=1;exitX=1;exitY=0.5;exitDx=0;exitDy=0;entryX=0.5;entryY=0;entryDx=0;entryDy=0;" edge="1" parent="1" source="9x6tsyBbqe4y4ygr-2_b-1" target="9x6tsyBbqe4y4ygr-2_b-2">
          <mxGeometry relative="1" as="geometry" />
        </mxCell>
        <mxCell id="9x6tsyBbqe4y4ygr-2_b-16" style="edgeStyle=orthogonalEdgeStyle;rounded=0;orthogonalLoop=1;jettySize=auto;html=1;exitX=0.5;exitY=1;exitDx=0;exitDy=0;entryX=0.5;entryY=0;entryDx=0;entryDy=0;" edge="1" parent="1" source="9x6tsyBbqe4y4ygr-2_b-1" target="9x6tsyBbqe4y4ygr-2_b-4">
          <mxGeometry relative="1" as="geometry" />
        </mxCell>
        <mxCell id="9x6tsyBbqe4y4ygr-2_b-23" style="edgeStyle=orthogonalEdgeStyle;rounded=0;orthogonalLoop=1;jettySize=auto;html=1;exitX=0;exitY=0.5;exitDx=0;exitDy=0;entryX=0.5;entryY=0;entryDx=0;entryDy=0;" edge="1" parent="1" source="9x6tsyBbqe4y4ygr-2_b-1" target="9x6tsyBbqe4y4ygr-2_b-18">
          <mxGeometry relative="1" as="geometry">
            <mxPoint x="210" y="140" as="targetPoint" />
          </mxGeometry>
        </mxCell>
        <mxCell id="9x6tsyBbqe4y4ygr-2_b-1" value="Страница входа" style="rounded=0;whiteSpace=wrap;html=1;" vertex="1" parent="1">
          <mxGeometry x="340" y="70" width="120" height="60" as="geometry" />
        </mxCell>
        <mxCell id="9x6tsyBbqe4y4ygr-2_b-25" style="edgeStyle=orthogonalEdgeStyle;rounded=0;orthogonalLoop=1;jettySize=auto;html=1;exitX=0.5;exitY=1;exitDx=0;exitDy=0;entryX=0.5;entryY=0;entryDx=0;entryDy=0;" edge="1" parent="1" source="9x6tsyBbqe4y4ygr-2_b-2">
          <mxGeometry relative="1" as="geometry">
            <mxPoint x="590" y="230" as="targetPoint" />
          </mxGeometry>
        </mxCell>
        <mxCell id="9x6tsyBbqe4y4ygr-2_b-2" value="Ввод смс" style="rounded=0;whiteSpace=wrap;html=1;" vertex="1" parent="1">
          <mxGeometry x="530" y="140" width="120" height="60" as="geometry" />
        </mxCell>
        <mxCell id="9x6tsyBbqe4y4ygr-2_b-12" style="edgeStyle=orthogonalEdgeStyle;rounded=0;orthogonalLoop=1;jettySize=auto;html=1;exitX=0.5;exitY=1;exitDx=0;exitDy=0;" edge="1" parent="1" source="9x6tsyBbqe4y4ygr-2_b-3" target="9x6tsyBbqe4y4ygr-2_b-5">
          <mxGeometry relative="1" as="geometry" />
        </mxCell>
        <mxCell id="9x6tsyBbqe4y4ygr-2_b-3" value="ЛК =&amp;gt; Сброс пароля" style="rounded=0;whiteSpace=wrap;html=1;" vertex="1" parent="1">
          <mxGeometry x="530" y="290" width="120" height="60" as="geometry" />
        </mxCell>
        <mxCell id="9x6tsyBbqe4y4ygr-2_b-4" value="Страница восстановления пароля" style="rounded=0;whiteSpace=wrap;html=1;" vertex="1" parent="1">
          <mxGeometry x="340" y="160" width="120" height="60" as="geometry" />
        </mxCell>
        <mxCell id="9x6tsyBbqe4y4ygr-2_b-10" style="edgeStyle=orthogonalEdgeStyle;rounded=0;orthogonalLoop=1;jettySize=auto;html=1;exitX=0.5;exitY=1;exitDx=0;exitDy=0;" edge="1" parent="1" source="9x6tsyBbqe4y4ygr-2_b-5">
          <mxGeometry relative="1" as="geometry">
            <mxPoint x="410" y="425" as="targetPoint" />
          </mxGeometry>
        </mxCell>
        <mxCell id="9x6tsyBbqe4y4ygr-2_b-5" value="Страница ввода нового пароля" style="rounded=0;whiteSpace=wrap;html=1;" vertex="1" parent="1">
          <mxGeometry x="350" y="290" width="120" height="60" as="geometry" />
        </mxCell>
        <mxCell id="9x6tsyBbqe4y4ygr-2_b-13" style="edgeStyle=orthogonalEdgeStyle;rounded=0;orthogonalLoop=1;jettySize=auto;html=1;exitX=0.5;exitY=1;exitDx=0;exitDy=0;entryX=0.417;entryY=0.033;entryDx=0;entryDy=0;entryPerimeter=0;" edge="1" parent="1" source="9x6tsyBbqe4y4ygr-2_b-4" target="9x6tsyBbqe4y4ygr-2_b-5">
          <mxGeometry relative="1" as="geometry" />
        </mxCell>
        <mxCell id="9x6tsyBbqe4y4ygr-2_b-21" style="edgeStyle=orthogonalEdgeStyle;rounded=0;orthogonalLoop=1;jettySize=auto;html=1;exitX=0.5;exitY=1;exitDx=0;exitDy=0;entryX=0.5;entryY=0;entryDx=0;entryDy=0;" edge="1" parent="1" source="9x6tsyBbqe4y4ygr-2_b-18" target="9x6tsyBbqe4y4ygr-2_b-19">
          <mxGeometry relative="1" as="geometry" />
        </mxCell>
        <mxCell id="9x6tsyBbqe4y4ygr-2_b-18" value="Зарегистрироваться:&lt;br&gt;Ввод телефона и пароля" style="rounded=0;whiteSpace=wrap;html=1;" vertex="1" parent="1">
          <mxGeometry x="690" y="70" width="120" height="60" as="geometry" />
        </mxCell>
        <mxCell id="9x6tsyBbqe4y4ygr-2_b-39" style="edgeStyle=orthogonalEdgeStyle;rounded=0;orthogonalLoop=1;jettySize=auto;html=1;exitX=0.5;exitY=1;exitDx=0;exitDy=0;entryX=1;entryY=0.5;entryDx=0;entryDy=0;" edge="1" parent="1" source="9x6tsyBbqe4y4ygr-2_b-19">
          <mxGeometry relative="1" as="geometry">
            <mxPoint x="650" y="245" as="targetPoint" />
          </mxGeometry>
        </mxCell>
        <mxCell id="9x6tsyBbqe4y4ygr-2_b-19" value="Ввод смс" style="rounded=0;whiteSpace=wrap;html=1;" vertex="1" parent="1">
          <mxGeometry x="690" y="200" width="120" height="60" as="geometry" />
        </mxCell>
        <mxCell id="9x6tsyBbqe4y4ygr-2_b-26" style="edgeStyle=orthogonalEdgeStyle;rounded=0;orthogonalLoop=1;jettySize=auto;html=1;exitX=0.5;exitY=1;exitDx=0;exitDy=0;entryX=0.5;entryY=0;entryDx=0;entryDy=0;" edge="1" parent="1" target="9x6tsyBbqe4y4ygr-2_b-3">
          <mxGeometry relative="1" as="geometry">
            <mxPoint x="590" y="260" as="sourcePoint" />
          </mxGeometry>
        </mxCell>
        <mxCell id="9x6tsyBbqe4y4ygr-2_b-27" value="&lt;font style=&quot;font-size: 20px;&quot;&gt;К&lt;/font&gt;" style="ellipse;whiteSpace=wrap;html=1;" vertex="1" parent="1">
          <mxGeometry x="520" y="70" width="20" height="20" as="geometry" />
        </mxCell>
        <mxCell id="9x6tsyBbqe4y4ygr-2_b-30" value="&lt;font style=&quot;font-size: 20px;&quot;&gt;К&lt;/font&gt;" style="ellipse;whiteSpace=wrap;html=1;" vertex="1" parent="1">
          <mxGeometry x="600" y="210" width="20" height="20" as="geometry" />
        </mxCell>
        <mxCell id="9x6tsyBbqe4y4ygr-2_b-31" value="&lt;font style=&quot;font-size: 20px;&quot;&gt;К&lt;/font&gt;" style="ellipse;whiteSpace=wrap;html=1;" vertex="1" parent="1">
          <mxGeometry x="490" y="290" width="20" height="20" as="geometry" />
        </mxCell>
        <mxCell id="9x6tsyBbqe4y4ygr-2_b-34" style="edgeStyle=orthogonalEdgeStyle;rounded=0;orthogonalLoop=1;jettySize=auto;html=1;exitX=1;exitY=0.5;exitDx=0;exitDy=0;entryX=0.5;entryY=0;entryDx=0;entryDy=0;shape=link;" edge="1" parent="1" source="9x6tsyBbqe4y4ygr-2_b-32" target="9x6tsyBbqe4y4ygr-2_b-31">
          <mxGeometry relative="1" as="geometry" />
        </mxCell>
        <mxCell id="9x6tsyBbqe4y4ygr-2_b-32" value="&lt;font style=&quot;font-size: 20px;&quot;&gt;К&lt;/font&gt;" style="ellipse;whiteSpace=wrap;html=1;" vertex="1" parent="1">
          <mxGeometry x="404" y="235" width="20" height="20" as="geometry" />
        </mxCell>
        <mxCell id="9x6tsyBbqe4y4ygr-2_b-35" value="&lt;font style=&quot;font-size: 20px;&quot;&gt;К&lt;/font&gt;" style="ellipse;whiteSpace=wrap;html=1;" vertex="1" parent="1">
          <mxGeometry x="414" y="370" width="20" height="20" as="geometry" />
        </mxCell>
        <mxCell id="9x6tsyBbqe4y4ygr-2_b-36" value="&lt;font style=&quot;font-size: 20px;&quot;&gt;К&lt;/font&gt;" style="ellipse;whiteSpace=wrap;html=1;" vertex="1" parent="1">
          <mxGeometry x="750" y="280" width="20" height="20" as="geometry" />
        </mxCell>
        <mxCell id="9x6tsyBbqe4y4ygr-2_b-37" value="&lt;font style=&quot;font-size: 20px;&quot;&gt;К&lt;/font&gt;" style="ellipse;whiteSpace=wrap;html=1;" vertex="1" parent="1">
          <mxGeometry x="760" y="150" width="20" height="20" as="geometry" />
        </mxCell>
        <mxCell id="9x6tsyBbqe4y4ygr-2_b-43" value="" style="endArrow=none;html=1;rounded=0;fillColor=#f8cecc;strokeColor=#b85450;strokeWidth=5;" edge="1" parent="1">
          <mxGeometry width="50" height="50" relative="1" as="geometry">
            <mxPoint x="747.5" y="305" as="sourcePoint" />
            <mxPoint x="772.5" y="280" as="targetPoint" />
          </mxGeometry>
        </mxCell>
        <mxCell id="9x6tsyBbqe4y4ygr-2_b-44" value="" style="endArrow=none;html=1;rounded=0;fillColor=#f8cecc;strokeColor=#b85450;strokeWidth=5;" edge="1" parent="1">
          <mxGeometry width="50" height="50" relative="1" as="geometry">
            <mxPoint x="595" y="235" as="sourcePoint" />
            <mxPoint x="620" y="210" as="targetPoint" />
            <Array as="points" />
          </mxGeometry>
        </mxCell>
        <mxCell id="9x6tsyBbqe4y4ygr-2_b-45" value="" style="endArrow=none;html=1;rounded=0;fillColor=#fff2cc;strokeColor=#d6b656;strokeWidth=5;" edge="1" parent="1">
          <mxGeometry width="50" height="50" relative="1" as="geometry">
            <mxPoint x="409" y="392.5" as="sourcePoint" />
            <mxPoint x="434" y="367.5" as="targetPoint" />
          </mxGeometry>
        </mxCell>
        <mxCell id="9x6tsyBbqe4y4ygr-2_b-46" value="Авторизация" style="rounded=0;whiteSpace=wrap;html=1;" vertex="1" parent="1">
          <mxGeometry x="530" y="230" width="120" height="30" as="geometry" />
        </mxCell>
        <mxCell id="9x6tsyBbqe4y4ygr-2_b-64" style="edgeStyle=orthogonalEdgeStyle;rounded=0;orthogonalLoop=1;jettySize=auto;html=1;exitX=0;exitY=0.5;exitDx=0;exitDy=0;entryX=0.5;entryY=0;entryDx=0;entryDy=0;" edge="1" parent="1" source="9x6tsyBbqe4y4ygr-2_b-47" target="9x6tsyBbqe4y4ygr-2_b-49">
          <mxGeometry relative="1" as="geometry" />
        </mxCell>
        <mxCell id="9x6tsyBbqe4y4ygr-2_b-65" style="edgeStyle=orthogonalEdgeStyle;rounded=0;orthogonalLoop=1;jettySize=auto;html=1;exitX=1;exitY=0.5;exitDx=0;exitDy=0;entryX=0.5;entryY=0;entryDx=0;entryDy=0;" edge="1" parent="1" source="9x6tsyBbqe4y4ygr-2_b-47" target="9x6tsyBbqe4y4ygr-2_b-48">
          <mxGeometry relative="1" as="geometry" />
        </mxCell>
        <mxCell id="9x6tsyBbqe4y4ygr-2_b-47" value="почта" style="rounded=0;whiteSpace=wrap;html=1;" vertex="1" parent="1">
          <mxGeometry x="90" y="80" width="120" height="60" as="geometry" />
        </mxCell>
        <mxCell id="9x6tsyBbqe4y4ygr-2_b-71" style="edgeStyle=orthogonalEdgeStyle;rounded=0;orthogonalLoop=1;jettySize=auto;html=1;exitX=0.5;exitY=1;exitDx=0;exitDy=0;entryX=0.5;entryY=0;entryDx=0;entryDy=0;" edge="1" parent="1" source="9x6tsyBbqe4y4ygr-2_b-48" target="9x6tsyBbqe4y4ygr-2_b-50">
          <mxGeometry relative="1" as="geometry" />
        </mxCell>
        <mxCell id="9x6tsyBbqe4y4ygr-2_b-48" value="существующий" style="rounded=0;whiteSpace=wrap;html=1;" vertex="1" parent="1">
          <mxGeometry x="170" y="170" width="120" height="60" as="geometry" />
        </mxCell>
        <mxCell id="9x6tsyBbqe4y4ygr-2_b-70" style="edgeStyle=orthogonalEdgeStyle;rounded=0;orthogonalLoop=1;jettySize=auto;html=1;exitX=0.5;exitY=1;exitDx=0;exitDy=0;entryX=0.5;entryY=0;entryDx=0;entryDy=0;" edge="1" parent="1" source="9x6tsyBbqe4y4ygr-2_b-49" target="9x6tsyBbqe4y4ygr-2_b-57">
          <mxGeometry relative="1" as="geometry" />
        </mxCell>
        <mxCell id="9x6tsyBbqe4y4ygr-2_b-49" value="новый" style="rounded=0;whiteSpace=wrap;html=1;" vertex="1" parent="1">
          <mxGeometry x="20" y="175" width="120" height="60" as="geometry" />
        </mxCell>
        <mxCell id="9x6tsyBbqe4y4ygr-2_b-73" style="edgeStyle=orthogonalEdgeStyle;rounded=0;orthogonalLoop=1;jettySize=auto;html=1;exitX=0.5;exitY=1;exitDx=0;exitDy=0;entryX=0.5;entryY=0;entryDx=0;entryDy=0;" edge="1" parent="1" source="9x6tsyBbqe4y4ygr-2_b-50" target="9x6tsyBbqe4y4ygr-2_b-51">
          <mxGeometry relative="1" as="geometry" />
        </mxCell>
        <mxCell id="9x6tsyBbqe4y4ygr-2_b-50" value="Окно Вас Пригласили&lt;br&gt;Войти/отменить" style="rounded=0;whiteSpace=wrap;html=1;" vertex="1" parent="1">
          <mxGeometry x="170" y="250" width="120" height="60" as="geometry" />
        </mxCell>
        <mxCell id="9x6tsyBbqe4y4ygr-2_b-52" style="edgeStyle=orthogonalEdgeStyle;rounded=0;orthogonalLoop=1;jettySize=auto;html=1;exitX=1;exitY=0.5;exitDx=0;exitDy=0;entryX=0;entryY=0.5;entryDx=0;entryDy=0;" edge="1" parent="1" source="9x6tsyBbqe4y4ygr-2_b-51" target="9x6tsyBbqe4y4ygr-2_b-4">
          <mxGeometry relative="1" as="geometry" />
        </mxCell>
        <mxCell id="9x6tsyBbqe4y4ygr-2_b-77" style="edgeStyle=orthogonalEdgeStyle;rounded=0;orthogonalLoop=1;jettySize=auto;html=1;exitX=0.5;exitY=1;exitDx=0;exitDy=0;entryX=0.5;entryY=0;entryDx=0;entryDy=0;" edge="1" parent="1" source="9x6tsyBbqe4y4ygr-2_b-51" target="9x6tsyBbqe4y4ygr-2_b-53">
          <mxGeometry relative="1" as="geometry" />
        </mxCell>
        <mxCell id="9x6tsyBbqe4y4ygr-2_b-51" value="Ввод пароля" style="rounded=0;whiteSpace=wrap;html=1;" vertex="1" parent="1">
          <mxGeometry x="170" y="340" width="120" height="60" as="geometry" />
        </mxCell>
        <mxCell id="9x6tsyBbqe4y4ygr-2_b-56" style="edgeStyle=orthogonalEdgeStyle;rounded=0;orthogonalLoop=1;jettySize=auto;html=1;exitX=1;exitY=0.5;exitDx=0;exitDy=0;entryX=1;entryY=1;entryDx=0;entryDy=0;" edge="1" parent="1" source="9x6tsyBbqe4y4ygr-2_b-53" target="9x6tsyBbqe4y4ygr-2_b-46">
          <mxGeometry relative="1" as="geometry">
            <Array as="points">
              <mxPoint x="660" y="450" />
              <mxPoint x="660" y="260" />
            </Array>
          </mxGeometry>
        </mxCell>
        <mxCell id="9x6tsyBbqe4y4ygr-2_b-53" value="Ввод смс" style="rounded=0;whiteSpace=wrap;html=1;" vertex="1" parent="1">
          <mxGeometry x="170" y="420" width="120" height="60" as="geometry" />
        </mxCell>
        <mxCell id="9x6tsyBbqe4y4ygr-2_b-54" value="&lt;font style=&quot;font-size: 20px;&quot;&gt;К&lt;/font&gt;" style="ellipse;whiteSpace=wrap;html=1;" vertex="1" parent="1">
          <mxGeometry x="312.5" y="455" width="20" height="20" as="geometry" />
        </mxCell>
        <mxCell id="9x6tsyBbqe4y4ygr-2_b-55" value="" style="endArrow=none;html=1;rounded=0;fillColor=#f8cecc;strokeColor=#b85450;strokeWidth=5;" edge="1" parent="1">
          <mxGeometry width="50" height="50" relative="1" as="geometry">
            <mxPoint x="310" y="480" as="sourcePoint" />
            <mxPoint x="335" y="455" as="targetPoint" />
          </mxGeometry>
        </mxCell>
        <mxCell id="9x6tsyBbqe4y4ygr-2_b-72" style="edgeStyle=orthogonalEdgeStyle;rounded=0;orthogonalLoop=1;jettySize=auto;html=1;exitX=0.5;exitY=1;exitDx=0;exitDy=0;entryX=0.5;entryY=0;entryDx=0;entryDy=0;" edge="1" parent="1" source="9x6tsyBbqe4y4ygr-2_b-57" target="9x6tsyBbqe4y4ygr-2_b-58">
          <mxGeometry relative="1" as="geometry" />
        </mxCell>
        <mxCell id="9x6tsyBbqe4y4ygr-2_b-57" value="Окно Вас Пригласили&lt;br&gt;Продолжить/отменить" style="rounded=0;whiteSpace=wrap;html=1;" vertex="1" parent="1">
          <mxGeometry x="20" y="255" width="120" height="60" as="geometry" />
        </mxCell>
        <mxCell id="9x6tsyBbqe4y4ygr-2_b-75" style="edgeStyle=orthogonalEdgeStyle;rounded=0;orthogonalLoop=1;jettySize=auto;html=1;exitX=0.5;exitY=1;exitDx=0;exitDy=0;entryX=0.5;entryY=0;entryDx=0;entryDy=0;" edge="1" parent="1" source="9x6tsyBbqe4y4ygr-2_b-58" target="9x6tsyBbqe4y4ygr-2_b-59">
          <mxGeometry relative="1" as="geometry" />
        </mxCell>
        <mxCell id="9x6tsyBbqe4y4ygr-2_b-58" value="Создайте пароль" style="rounded=0;whiteSpace=wrap;html=1;" vertex="1" parent="1">
          <mxGeometry x="20" y="340" width="120" height="60" as="geometry" />
        </mxCell>
        <mxCell id="9x6tsyBbqe4y4ygr-2_b-60" style="edgeStyle=orthogonalEdgeStyle;rounded=0;orthogonalLoop=1;jettySize=auto;html=1;exitX=0.5;exitY=1;exitDx=0;exitDy=0;" edge="1" parent="1" source="9x6tsyBbqe4y4ygr-2_b-59">
          <mxGeometry relative="1" as="geometry">
            <mxPoint x="660" y="450" as="targetPoint" />
            <Array as="points">
              <mxPoint x="80" y="500" />
              <mxPoint x="660" y="500" />
            </Array>
          </mxGeometry>
        </mxCell>
        <mxCell id="9x6tsyBbqe4y4ygr-2_b-59" value="Ввод смс" style="rounded=0;whiteSpace=wrap;html=1;" vertex="1" parent="1">
          <mxGeometry x="20" y="420" width="120" height="60" as="geometry" />
        </mxCell>
        <mxCell id="9x6tsyBbqe4y4ygr-2_b-61" value="&lt;font style=&quot;font-size: 20px;&quot;&gt;К&lt;/font&gt;" style="ellipse;whiteSpace=wrap;html=1;" vertex="1" parent="1">
          <mxGeometry x="280" y="510" width="20" height="20" as="geometry" />
        </mxCell>
        <mxCell id="9x6tsyBbqe4y4ygr-2_b-63" value="" style="endArrow=none;html=1;rounded=0;fillColor=#f8cecc;strokeColor=#b85450;strokeWidth=5;" edge="1" parent="1">
          <mxGeometry width="50" height="50" relative="1" as="geometry">
            <mxPoint x="277.5" y="535" as="sourcePoint" />
            <mxPoint x="302.5" y="510" as="targetPoint" />
          </mxGeometry>
        </mxCell>
        <mxCell id="9x6tsyBbqe4y4ygr-2_b-66" value="Тут бага при создании сотрудника" style="text;html=1;align=center;verticalAlign=middle;resizable=0;points=[];autosize=1;strokeColor=none;fillColor=none;" vertex="1" parent="1">
          <mxGeometry x="380" y="435" width="210" height="30" as="geometry" />
        </mxCell>
        <mxCell id="9x6tsyBbqe4y4ygr-2_b-68" value="По этому кейсу после смс не смог пройти из-за баги с перезапросом смс (которую решили не править)" style="text;html=1;align=center;verticalAlign=middle;resizable=0;points=[];autosize=1;strokeColor=none;fillColor=none;" vertex="1" parent="1">
          <mxGeometry x="90" y="490" width="600" height="30" as="geometry" />
        </mxCell>
        <mxCell id="9x6tsyBbqe4y4ygr-2_b-78" value="&lt;font style=&quot;font-size: 20px;&quot;&gt;К&lt;/font&gt;" style="ellipse;whiteSpace=wrap;html=1;fillColor=#d5e8d4;strokeColor=#82b366;" vertex="1" parent="1">
          <mxGeometry x="90" y="400" width="20" height="20" as="geometry" />
        </mxCell>
        <mxCell id="9x6tsyBbqe4y4ygr-2_b-79" value="&lt;font style=&quot;font-size: 20px;&quot;&gt;К&lt;/font&gt;" style="ellipse;whiteSpace=wrap;html=1;fillColor=#d5e8d4;strokeColor=#82b366;" vertex="1" parent="1">
          <mxGeometry x="240" y="400" width="20" height="20" as="geometry" />
        </mxCell>
      </root>
    </mxGraphModel>
  </diagram>
</mxfile>
